<svg width="1440" height="646" viewBox="0 0 1440 646" fill="none" xmlns="http://www.w3.org/2000/svg">
<mask id="mask0_98_316" style="mask-type:alpha" maskUnits="userSpaceOnUse" x="0" y="0" width="1440" height="646">
<rect width="1440" height="646" fill="#D9D9D9"/>
</mask>
<g mask="url(#mask0_98_316)">
<g filter="url(#filter0_f_98_316)">
<path d="M1565 4.97373e-06C1565 69.0356 1509.04 125 1440 125C1370.96 125 1315 69.0356 1315 4.97373e-06C1315 -69.0356 1370.96 -125 1440 -125C1509.04 -125 1565 -69.0356 1565 4.97373e-06Z" fill="#44C09B" fill-opacity="0.35"/>
</g>
<g filter="url(#filter1_f_98_316)">
<path d="M125 4.97373e-06C125 69.0356 69.0356 125 2.23517e-06 125C-69.0356 125 -125 69.0356 -125 4.97373e-06C-125 -69.0356 -69.0356 -125 2.23517e-06 -125C69.0356 -125 125 -69.0356 125 4.97373e-06Z" fill="#44C09B" fill-opacity="0.35"/>
</g>
</g>
<defs>
<filter id="filter0_f_98_316" x="965" y="-475" width="950" height="950" filterUnits="userSpaceOnUse" color-interpolation-filters="sRGB">
<feFlood flood-opacity="0" result="BackgroundImageFix"/>
<feBlend mode="normal" in="SourceGraphic" in2="BackgroundImageFix" result="shape"/>
<feGaussianBlur stdDeviation="175" result="effect1_foregroundBlur_98_316"/>
</filter>
<filter id="filter1_f_98_316" x="-475" y="-475" width="950" height="950" filterUnits="userSpaceOnUse" color-interpolation-filters="sRGB">
<feFlood flood-opacity="0" result="BackgroundImageFix"/>
<feBlend mode="normal" in="SourceGraphic" in2="BackgroundImageFix" result="shape"/>
<feGaussianBlur stdDeviation="175" result="effect1_foregroundBlur_98_316"/>
</filter>
</defs>
</svg>
